<svg width="700" height="601" viewBox="0 0 700 601" fill="none" xmlns="http://www.w3.org/2000/svg">
<rect width="700" height="601" fill="white"/>
<rect x="20" y="20" width="80" height="561" fill="#727272"/>
<path d="M67.24 338.64C67.24 339.72 67.0667 340.727 66.72 341.66C66.36 342.58 65.8533 343.38 65.2 344.06C64.5467 344.74 63.78 345.273 62.9 345.66C62.02 346.033 61.0533 346.22 60 346.22C58.9467 346.22 57.98 346.033 57.1 345.66C56.22 345.273 55.4533 344.74 54.8 344.06C54.1467 343.367 53.6467 342.56 53.3 341.64C52.94 340.72 52.76 339.713 52.76 338.62C52.76 337.407 52.9733 336.313 53.4 335.34C53.8133 334.353 54.4267 333.527 55.24 332.86L57.16 334.94C56.6133 335.42 56.2067 335.953 55.94 336.54C55.66 337.127 55.52 337.767 55.52 338.46C55.52 339.113 55.6267 339.713 55.84 340.26C56.0533 340.807 56.36 341.28 56.76 341.68C57.16 342.08 57.6333 342.393 58.18 342.62C58.7267 342.833 59.3333 342.94 60 342.94C60.6667 342.94 61.2733 342.833 61.82 342.62C62.3667 342.393 62.84 342.08 63.24 341.68C63.64 341.28 63.9467 340.807 64.16 340.26C64.3733 339.713 64.48 339.113 64.48 338.46C64.48 337.767 64.3467 337.127 64.08 336.54C63.8 335.953 63.38 335.42 62.82 334.94L64.74 332.86C65.5533 333.527 66.1733 334.353 66.6 335.34C67.0267 336.313 67.24 337.413 67.24 338.64ZM67.16 326.143C67.16 327.29 66.92 328.31 66.44 329.203C65.96 330.083 65.3067 330.783 64.48 331.303C63.64 331.81 62.6867 332.063 61.62 332.063C60.54 332.063 59.5867 331.81 58.76 331.303C57.92 330.783 57.2667 330.083 56.8 329.203C56.32 328.31 56.08 327.29 56.08 326.143C56.08 325.01 56.32 323.996 56.8 323.103C57.2667 322.21 57.9133 321.51 58.74 321.003C59.5667 320.496 60.5267 320.243 61.62 320.243C62.6867 320.243 63.64 320.496 64.48 321.003C65.3067 321.51 65.96 322.21 66.44 323.103C66.92 323.996 67.16 325.01 67.16 326.143ZM64.6 326.143C64.6 325.623 64.48 325.156 64.24 324.743C64 324.33 63.66 324.003 63.22 323.763C62.7667 323.523 62.2333 323.403 61.62 323.403C60.9933 323.403 60.46 323.523 60.02 323.763C59.58 324.003 59.24 324.33 59 324.743C58.76 325.156 58.64 325.623 58.64 326.143C58.64 326.663 58.76 327.13 59 327.543C59.24 327.956 59.58 328.29 60.02 328.543C60.46 328.783 60.9933 328.903 61.62 328.903C62.2333 328.903 62.7667 328.783 63.22 328.543C63.66 328.29 64 327.956 64.24 327.543C64.48 327.13 64.6 326.663 64.6 326.143ZM67 318.158H56.24V315.178H59.28L58.4 315.598C57.64 315.278 57.0667 314.764 56.68 314.058C56.28 313.351 56.08 312.491 56.08 311.478H58.96C58.9467 311.611 58.94 311.731 58.94 311.838C58.9267 311.944 58.92 312.058 58.92 312.178C58.92 313.031 59.1667 313.724 59.66 314.258C60.14 314.778 60.8933 315.038 61.92 315.038H67V318.158ZM67 309.603H56.24V306.623H59.28L58.4 307.043C57.64 306.723 57.0667 306.21 56.68 305.503C56.28 304.796 56.08 303.936 56.08 302.923H58.96C58.9467 303.056 58.94 303.176 58.94 303.283C58.9267 303.39 58.92 303.503 58.92 303.623C58.92 304.476 59.1667 305.17 59.66 305.703C60.14 306.223 60.8933 306.483 61.92 306.483H67V309.603ZM67.16 295.806C67.16 297.033 66.92 298.113 66.44 299.046C65.96 299.966 65.3067 300.679 64.48 301.186C63.64 301.693 62.6867 301.946 61.62 301.946C60.54 301.946 59.5867 301.699 58.76 301.206C57.92 300.699 57.2667 300.013 56.8 299.146C56.32 298.279 56.08 297.299 56.08 296.206C56.08 295.153 56.3067 294.206 56.76 293.366C57.2 292.513 57.84 291.839 58.68 291.346C59.5067 290.853 60.5 290.606 61.66 290.606C61.78 290.606 61.92 290.613 62.08 290.626C62.2267 290.639 62.3667 290.653 62.5 290.666V299.406H60.68V292.306L61.22 293.506C60.66 293.506 60.1733 293.619 59.76 293.846C59.3467 294.073 59.0267 294.386 58.8 294.786C58.56 295.186 58.44 295.653 58.44 296.186C58.44 296.719 58.56 297.193 58.8 297.606C59.0267 298.006 59.3533 298.319 59.78 298.546C60.1933 298.773 60.6867 298.886 61.26 298.886H61.74C62.3267 298.886 62.8467 298.759 63.3 298.506C63.74 298.239 64.08 297.873 64.32 297.406C64.5467 296.926 64.66 296.366 64.66 295.726C64.66 295.153 64.5733 294.653 64.4 294.226C64.2267 293.786 63.9667 293.386 63.62 293.026L65.42 291.366C65.98 291.859 66.4133 292.479 66.72 293.226C67.0133 293.973 67.16 294.833 67.16 295.806ZM67.16 283.909C67.16 284.922 66.9333 285.835 66.48 286.649C66.0133 287.462 65.3667 288.109 64.54 288.589C63.7133 289.055 62.74 289.289 61.62 289.289C60.4867 289.289 59.5067 289.055 58.68 288.589C57.8533 288.109 57.2133 287.462 56.76 286.649C56.3067 285.835 56.08 284.922 56.08 283.909C56.08 283.002 56.28 282.209 56.68 281.529C57.08 280.849 57.6867 280.322 58.5 279.949C59.3133 279.575 60.3533 279.389 61.62 279.389C62.8733 279.389 63.9133 279.569 64.74 279.929C65.5533 280.289 66.16 280.809 66.56 281.489C66.96 282.155 67.16 282.962 67.16 283.909ZM64.6 283.369C64.6 282.862 64.48 282.402 64.24 281.989C64 281.575 63.66 281.249 63.22 281.009C62.7667 280.755 62.2333 280.629 61.62 280.629C60.9933 280.629 60.46 280.755 60.02 281.009C59.58 281.249 59.24 281.575 59 281.989C58.76 282.402 58.64 282.862 58.64 283.369C58.64 283.889 58.76 284.355 59 284.769C59.24 285.182 59.58 285.515 60.02 285.769C60.46 286.009 60.9933 286.129 61.62 286.129C62.2333 286.129 62.7667 286.009 63.22 285.769C63.66 285.515 64 285.182 64.24 284.769C64.48 284.355 64.6 283.889 64.6 283.369ZM67 280.549H64.8L61.6 280.489L58.42 280.689H52.16V277.569H67V280.549ZM67.16 269.561C67.16 270.708 66.92 271.728 66.44 272.621C65.96 273.501 65.3067 274.201 64.48 274.721C63.64 275.228 62.6867 275.481 61.62 275.481C60.54 275.481 59.5867 275.228 58.76 274.721C57.92 274.201 57.2667 273.501 56.8 272.621C56.32 271.728 56.08 270.708 56.08 269.561C56.08 268.428 56.32 267.414 56.8 266.521C57.2667 265.628 57.9133 264.928 58.74 264.421C59.5667 263.914 60.5267 263.661 61.62 263.661C62.6867 263.661 63.64 263.914 64.48 264.421C65.3067 264.928 65.96 265.628 66.44 266.521C66.92 267.414 67.16 268.428 67.16 269.561ZM64.6 269.561C64.6 269.041 64.48 268.574 64.24 268.161C64 267.748 63.66 267.421 63.22 267.181C62.7667 266.941 62.2333 266.821 61.62 266.821C60.9933 266.821 60.46 266.941 60.02 267.181C59.58 267.421 59.24 267.748 59 268.161C58.76 268.574 58.64 269.041 58.64 269.561C58.64 270.081 58.76 270.548 59 270.961C59.24 271.374 59.58 271.708 60.02 271.961C60.46 272.201 60.9933 272.321 61.62 272.321C62.2333 272.321 62.7667 272.201 63.22 271.961C63.66 271.708 64 271.374 64.24 270.961C64.48 270.548 64.6 270.081 64.6 269.561ZM67 261.576H56.24V258.596H59.28L58.4 259.016C57.64 258.696 57.0667 258.182 56.68 257.476C56.28 256.769 56.08 255.909 56.08 254.896H58.96C58.9467 255.029 58.94 255.149 58.94 255.256C58.9267 255.362 58.92 255.476 58.92 255.596C58.92 256.449 59.1667 257.142 59.66 257.676C60.14 258.196 60.8933 258.456 61.92 258.456H67V261.576Z" fill="white"/>
<rect x="120" y="20" width="560" height="50" fill="#727272"/>
<path d="M370.66 52V38H373.9V49.36H380.92V52H370.66ZM387.572 52.16C386.425 52.16 385.405 51.92 384.512 51.44C383.632 50.96 382.932 50.3067 382.412 49.48C381.905 48.64 381.652 47.6867 381.652 46.62C381.652 45.54 381.905 44.5867 382.412 43.76C382.932 42.92 383.632 42.2667 384.512 41.8C385.405 41.32 386.425 41.08 387.572 41.08C388.705 41.08 389.718 41.32 390.612 41.8C391.505 42.2667 392.205 42.9133 392.712 43.74C393.218 44.5667 393.472 45.5267 393.472 46.62C393.472 47.6867 393.218 48.64 392.712 49.48C392.205 50.3067 391.505 50.96 390.612 51.44C389.718 51.92 388.705 52.16 387.572 52.16ZM387.572 49.6C388.092 49.6 388.558 49.48 388.972 49.24C389.385 49 389.712 48.66 389.952 48.22C390.192 47.7667 390.312 47.2333 390.312 46.62C390.312 45.9933 390.192 45.46 389.952 45.02C389.712 44.58 389.385 44.24 388.972 44C388.558 43.76 388.092 43.64 387.572 43.64C387.052 43.64 386.585 43.76 386.172 44C385.758 44.24 385.425 44.58 385.172 45.02C384.932 45.46 384.812 45.9933 384.812 46.62C384.812 47.2333 384.932 47.7667 385.172 48.22C385.425 48.66 385.758 49 386.172 49.24C386.585 49.48 387.052 49.6 387.572 49.6ZM400.097 52.16C399.204 52.16 398.404 51.9867 397.697 51.64C397.004 51.2933 396.464 50.7667 396.077 50.06C395.691 49.34 395.497 48.4267 395.497 47.32V41.24H398.617V46.86C398.617 47.7533 398.804 48.4133 399.177 48.84C399.564 49.2533 400.104 49.46 400.797 49.46C401.277 49.46 401.704 49.36 402.077 49.16C402.451 48.9467 402.744 48.6267 402.957 48.2C403.171 47.76 403.277 47.2133 403.277 46.56V41.24H406.397V52H403.437V49.04L403.977 49.9C403.617 50.6467 403.084 51.2133 402.377 51.6C401.684 51.9733 400.924 52.16 400.097 52.16ZM412.908 52.16C411.988 52.16 411.101 52.0533 410.248 51.84C409.408 51.6133 408.741 51.3333 408.248 51L409.288 48.76C409.781 49.0667 410.361 49.32 411.028 49.52C411.708 49.7067 412.374 49.8 413.028 49.8C413.748 49.8 414.254 49.7133 414.548 49.54C414.854 49.3667 415.008 49.1267 415.008 48.82C415.008 48.5667 414.888 48.38 414.648 48.26C414.421 48.1267 414.114 48.0267 413.728 47.96C413.341 47.8933 412.914 47.8267 412.448 47.76C411.994 47.6933 411.534 47.6067 411.068 47.5C410.601 47.38 410.174 47.2067 409.788 46.98C409.401 46.7533 409.088 46.4467 408.848 46.06C408.621 45.6733 408.508 45.1733 408.508 44.56C408.508 43.88 408.701 43.28 409.088 42.76C409.488 42.24 410.061 41.8333 410.808 41.54C411.554 41.2333 412.448 41.08 413.488 41.08C414.221 41.08 414.968 41.16 415.728 41.32C416.488 41.48 417.121 41.7133 417.628 42.02L416.588 44.24C416.068 43.9333 415.541 43.7267 415.008 43.62C414.488 43.5 413.981 43.44 413.488 43.44C412.794 43.44 412.288 43.5333 411.968 43.72C411.648 43.9067 411.488 44.1467 411.488 44.44C411.488 44.7067 411.601 44.9067 411.828 45.04C412.068 45.1733 412.381 45.28 412.768 45.36C413.154 45.44 413.574 45.5133 414.028 45.58C414.494 45.6333 414.961 45.72 415.428 45.84C415.894 45.96 416.314 46.1333 416.688 46.36C417.074 46.5733 417.388 46.8733 417.628 47.26C417.868 47.6333 417.988 48.1267 417.988 48.74C417.988 49.4067 417.788 50 417.388 50.52C416.988 51.0267 416.408 51.4267 415.648 51.72C414.901 52.0133 413.988 52.16 412.908 52.16ZM426.513 52V49.9L426.313 49.44V45.68C426.313 45.0133 426.106 44.4933 425.693 44.12C425.293 43.7467 424.673 43.56 423.833 43.56C423.259 43.56 422.693 43.6533 422.133 43.84C421.586 44.0133 421.119 44.2533 420.733 44.56L419.613 42.38C420.199 41.9667 420.906 41.6467 421.733 41.42C422.559 41.1933 423.399 41.08 424.253 41.08C425.893 41.08 427.166 41.4667 428.073 42.24C428.979 43.0133 429.433 44.22 429.433 45.86V52H426.513ZM423.233 52.16C422.393 52.16 421.673 52.02 421.073 51.74C420.473 51.4467 420.013 51.0533 419.693 50.56C419.373 50.0667 419.213 49.5133 419.213 48.9C419.213 48.26 419.366 47.7 419.673 47.22C419.993 46.74 420.493 46.3667 421.173 46.1C421.853 45.82 422.739 45.68 423.833 45.68H426.693V47.5H424.173C423.439 47.5 422.933 47.62 422.653 47.86C422.386 48.1 422.253 48.4 422.253 48.76C422.253 49.16 422.406 49.48 422.713 49.72C423.033 49.9467 423.466 50.06 424.013 50.06C424.533 50.06 424.999 49.94 425.413 49.7C425.826 49.4467 426.126 49.08 426.313 48.6L426.793 50.04C426.566 50.7333 426.153 51.26 425.553 51.62C424.953 51.98 424.179 52.16 423.233 52.16Z" fill="white"/>
<rect x="530" y="80" width="150" height="51" fill="#727272"/>
<path d="M556.66 112V98H562.72C563.973 98 565.053 98.2067 565.96 98.62C566.867 99.02 567.567 99.6 568.06 100.36C568.553 101.12 568.8 102.027 568.8 103.08C568.8 104.12 568.553 105.02 568.06 105.78C567.567 106.54 566.867 107.127 565.96 107.54C565.053 107.94 563.973 108.14 562.72 108.14H558.46L559.9 106.68V112H556.66ZM559.9 107.04L558.46 105.5H562.54C563.54 105.5 564.287 105.287 564.78 104.86C565.273 104.433 565.52 103.84 565.52 103.08C565.52 102.307 565.273 101.707 564.78 101.28C564.287 100.853 563.54 100.64 562.54 100.64H558.46L559.9 99.1V107.04ZM570.874 112V101.24H573.854V104.28L573.434 103.4C573.754 102.64 574.267 102.067 574.974 101.68C575.68 101.28 576.54 101.08 577.554 101.08V103.96C577.42 103.947 577.3 103.94 577.194 103.94C577.087 103.927 576.974 103.92 576.854 103.92C576 103.92 575.307 104.167 574.774 104.66C574.254 105.14 573.994 105.893 573.994 106.92V112H570.874ZM584.451 112.16C583.304 112.16 582.284 111.92 581.391 111.44C580.511 110.96 579.811 110.307 579.291 109.48C578.784 108.64 578.531 107.687 578.531 106.62C578.531 105.54 578.784 104.587 579.291 103.76C579.811 102.92 580.511 102.267 581.391 101.8C582.284 101.32 583.304 101.08 584.451 101.08C585.584 101.08 586.597 101.32 587.491 101.8C588.384 102.267 589.084 102.913 589.591 103.74C590.097 104.567 590.351 105.527 590.351 106.62C590.351 107.687 590.097 108.64 589.591 109.48C589.084 110.307 588.384 110.96 587.491 111.44C586.597 111.92 585.584 112.16 584.451 112.16ZM584.451 109.6C584.971 109.6 585.437 109.48 585.851 109.24C586.264 109 586.591 108.66 586.831 108.22C587.071 107.767 587.191 107.233 587.191 106.62C587.191 105.993 587.071 105.46 586.831 105.02C586.591 104.58 586.264 104.24 585.851 104C585.437 103.76 584.971 103.64 584.451 103.64C583.931 103.64 583.464 103.76 583.051 104C582.637 104.24 582.304 104.58 582.051 105.02C581.811 105.46 581.691 105.993 581.691 106.62C581.691 107.233 581.811 107.767 582.051 108.22C582.304 108.66 582.637 109 583.051 109.24C583.464 109.48 583.931 109.6 584.451 109.6ZM592.816 112V101C592.816 99.7867 593.176 98.82 593.896 98.1C594.616 97.3667 595.643 97 596.976 97C597.429 97 597.863 97.0467 598.276 97.14C598.703 97.2333 599.063 97.38 599.356 97.58L598.536 99.84C598.363 99.72 598.169 99.6267 597.956 99.56C597.743 99.4933 597.516 99.46 597.276 99.46C596.823 99.46 596.469 99.5933 596.216 99.86C595.976 100.113 595.856 100.5 595.856 101.02V102.02L595.936 103.36V112H592.816ZM591.156 103.88V101.48H598.616V103.88H591.156ZM605.374 112.16C604.147 112.16 603.067 111.92 602.134 111.44C601.214 110.96 600.5 110.307 599.994 109.48C599.487 108.64 599.234 107.687 599.234 106.62C599.234 105.54 599.48 104.587 599.974 103.76C600.48 102.92 601.167 102.267 602.034 101.8C602.9 101.32 603.88 101.08 604.974 101.08C606.027 101.08 606.974 101.307 607.814 101.76C608.667 102.2 609.34 102.84 609.834 103.68C610.327 104.507 610.574 105.5 610.574 106.66C610.574 106.78 610.567 106.92 610.554 107.08C610.54 107.227 610.527 107.367 610.514 107.5H601.774V105.68H608.874L607.674 106.22C607.674 105.66 607.56 105.173 607.334 104.76C607.107 104.347 606.794 104.027 606.394 103.8C605.994 103.56 605.527 103.44 604.994 103.44C604.46 103.44 603.987 103.56 603.574 103.8C603.174 104.027 602.86 104.353 602.634 104.78C602.407 105.193 602.294 105.687 602.294 106.26V106.74C602.294 107.327 602.42 107.847 602.674 108.3C602.94 108.74 603.307 109.08 603.774 109.32C604.254 109.547 604.814 109.66 605.454 109.66C606.027 109.66 606.527 109.573 606.954 109.4C607.394 109.227 607.794 108.967 608.154 108.62L609.814 110.42C609.32 110.98 608.7 111.413 607.954 111.72C607.207 112.013 606.347 112.16 605.374 112.16ZM616.271 112.16C615.351 112.16 614.464 112.053 613.611 111.84C612.771 111.613 612.104 111.333 611.611 111L612.651 108.76C613.144 109.067 613.724 109.32 614.391 109.52C615.071 109.707 615.738 109.8 616.391 109.8C617.111 109.8 617.618 109.713 617.911 109.54C618.218 109.367 618.371 109.127 618.371 108.82C618.371 108.567 618.251 108.38 618.011 108.26C617.784 108.127 617.478 108.027 617.091 107.96C616.704 107.893 616.278 107.827 615.811 107.76C615.358 107.693 614.898 107.607 614.431 107.5C613.964 107.38 613.538 107.207 613.151 106.98C612.764 106.753 612.451 106.447 612.211 106.06C611.984 105.673 611.871 105.173 611.871 104.56C611.871 103.88 612.064 103.28 612.451 102.76C612.851 102.24 613.424 101.833 614.171 101.54C614.918 101.233 615.811 101.08 616.851 101.08C617.584 101.08 618.331 101.16 619.091 101.32C619.851 101.48 620.484 101.713 620.991 102.02L619.951 104.24C619.431 103.933 618.904 103.727 618.371 103.62C617.851 103.5 617.344 103.44 616.851 103.44C616.158 103.44 615.651 103.533 615.331 103.72C615.011 103.907 614.851 104.147 614.851 104.44C614.851 104.707 614.964 104.907 615.191 105.04C615.431 105.173 615.744 105.28 616.131 105.36C616.518 105.44 616.938 105.513 617.391 105.58C617.858 105.633 618.324 105.72 618.791 105.84C619.258 105.96 619.678 106.133 620.051 106.36C620.438 106.573 620.751 106.873 620.991 107.26C621.231 107.633 621.351 108.127 621.351 108.74C621.351 109.407 621.151 110 620.751 110.52C620.351 111.027 619.771 111.427 619.011 111.72C618.264 112.013 617.351 112.16 616.271 112.16ZM626.896 112.16C625.976 112.16 625.089 112.053 624.236 111.84C623.396 111.613 622.729 111.333 622.236 111L623.276 108.76C623.769 109.067 624.349 109.32 625.016 109.52C625.696 109.707 626.363 109.8 627.016 109.8C627.736 109.8 628.243 109.713 628.536 109.54C628.843 109.367 628.996 109.127 628.996 108.82C628.996 108.567 628.876 108.38 628.636 108.26C628.409 108.127 628.103 108.027 627.716 107.96C627.329 107.893 626.903 107.827 626.436 107.76C625.983 107.693 625.523 107.607 625.056 107.5C624.589 107.38 624.163 107.207 623.776 106.98C623.389 106.753 623.076 106.447 622.836 106.06C622.609 105.673 622.496 105.173 622.496 104.56C622.496 103.88 622.689 103.28 623.076 102.76C623.476 102.24 624.049 101.833 624.796 101.54C625.543 101.233 626.436 101.08 627.476 101.08C628.209 101.08 628.956 101.16 629.716 101.32C630.476 101.48 631.109 101.713 631.616 102.02L630.576 104.24C630.056 103.933 629.529 103.727 628.996 103.62C628.476 103.5 627.969 103.44 627.476 103.44C626.783 103.44 626.276 103.533 625.956 103.72C625.636 103.907 625.476 104.147 625.476 104.44C625.476 104.707 625.589 104.907 625.816 105.04C626.056 105.173 626.369 105.28 626.756 105.36C627.143 105.44 627.563 105.513 628.016 105.58C628.483 105.633 628.949 105.72 629.416 105.84C629.883 105.96 630.303 106.133 630.676 106.36C631.063 106.573 631.376 106.873 631.616 107.26C631.856 107.633 631.976 108.127 631.976 108.74C631.976 109.407 631.776 110 631.376 110.52C630.976 111.027 630.396 111.427 629.636 111.72C628.889 112.013 627.976 112.16 626.896 112.16ZM639.021 112.16C637.874 112.16 636.854 111.92 635.961 111.44C635.081 110.96 634.381 110.307 633.861 109.48C633.354 108.64 633.101 107.687 633.101 106.62C633.101 105.54 633.354 104.587 633.861 103.76C634.381 102.92 635.081 102.267 635.961 101.8C636.854 101.32 637.874 101.08 639.021 101.08C640.154 101.08 641.168 101.32 642.061 101.8C642.954 102.267 643.654 102.913 644.161 103.74C644.668 104.567 644.921 105.527 644.921 106.62C644.921 107.687 644.668 108.64 644.161 109.48C643.654 110.307 642.954 110.96 642.061 111.44C641.168 111.92 640.154 112.16 639.021 112.16ZM639.021 109.6C639.541 109.6 640.008 109.48 640.421 109.24C640.834 109 641.161 108.66 641.401 108.22C641.641 107.767 641.761 107.233 641.761 106.62C641.761 105.993 641.641 105.46 641.401 105.02C641.161 104.58 640.834 104.24 640.421 104C640.008 103.76 639.541 103.64 639.021 103.64C638.501 103.64 638.034 103.76 637.621 104C637.208 104.24 636.874 104.58 636.621 105.02C636.381 105.46 636.261 105.993 636.261 106.62C636.261 107.233 636.381 107.767 636.621 108.22C636.874 108.66 637.208 109 637.621 109.24C638.034 109.48 638.501 109.6 639.021 109.6ZM647.006 112V101.24H649.986V104.28L649.566 103.4C649.886 102.64 650.4 102.067 651.106 101.68C651.813 101.28 652.673 101.08 653.686 101.08V103.96C653.553 103.947 653.433 103.94 653.326 103.94C653.22 103.927 653.106 103.92 652.986 103.92C652.133 103.92 651.44 104.167 650.906 104.66C650.386 105.14 650.126 105.893 650.126 106.92V112H647.006Z" fill="white"/>
<circle cx="213" cy="206" r="63.5" fill="white" stroke="black" stroke-width="3"/>
<path d="M177.66 213V199H180.34L186.3 208.88H184.88L190.74 199H193.4L193.44 213H190.4L190.38 203.66H190.94L186.26 211.52H184.8L180.02 203.66H180.7V213H177.66ZM201.882 213.16C200.655 213.16 199.575 212.92 198.642 212.44C197.722 211.96 197.008 211.307 196.502 210.48C195.995 209.64 195.742 208.687 195.742 207.62C195.742 206.54 195.988 205.587 196.482 204.76C196.988 203.92 197.675 203.267 198.542 202.8C199.408 202.32 200.388 202.08 201.482 202.08C202.535 202.08 203.482 202.307 204.322 202.76C205.175 203.2 205.848 203.84 206.342 204.68C206.835 205.507 207.082 206.5 207.082 207.66C207.082 207.78 207.075 207.92 207.062 208.08C207.048 208.227 207.035 208.367 207.022 208.5H198.282V206.68H205.382L204.182 207.22C204.182 206.66 204.068 206.173 203.842 205.76C203.615 205.347 203.302 205.027 202.902 204.8C202.502 204.56 202.035 204.44 201.502 204.44C200.968 204.44 200.495 204.56 200.082 204.8C199.682 205.027 199.368 205.353 199.142 205.78C198.915 206.193 198.802 206.687 198.802 207.26V207.74C198.802 208.327 198.928 208.847 199.182 209.3C199.448 209.74 199.815 210.08 200.282 210.32C200.762 210.547 201.322 210.66 201.962 210.66C202.535 210.66 203.035 210.573 203.462 210.4C203.902 210.227 204.302 209.967 204.662 209.62L206.322 211.42C205.828 211.98 205.208 212.413 204.462 212.72C203.715 213.013 202.855 213.16 201.882 213.16ZM212.779 213.16C211.859 213.16 210.972 213.053 210.119 212.84C209.279 212.613 208.612 212.333 208.119 212L209.159 209.76C209.652 210.067 210.232 210.32 210.899 210.52C211.579 210.707 212.245 210.8 212.899 210.8C213.619 210.8 214.125 210.713 214.419 210.54C214.725 210.367 214.879 210.127 214.879 209.82C214.879 209.567 214.759 209.38 214.519 209.26C214.292 209.127 213.985 209.027 213.599 208.96C213.212 208.893 212.785 208.827 212.319 208.76C211.865 208.693 211.405 208.607 210.939 208.5C210.472 208.38 210.045 208.207 209.659 207.98C209.272 207.753 208.959 207.447 208.719 207.06C208.492 206.673 208.379 206.173 208.379 205.56C208.379 204.88 208.572 204.28 208.959 203.76C209.359 203.24 209.932 202.833 210.679 202.54C211.425 202.233 212.319 202.08 213.359 202.08C214.092 202.08 214.839 202.16 215.599 202.32C216.359 202.48 216.992 202.713 217.499 203.02L216.459 205.24C215.939 204.933 215.412 204.727 214.879 204.62C214.359 204.5 213.852 204.44 213.359 204.44C212.665 204.44 212.159 204.533 211.839 204.72C211.519 204.907 211.359 205.147 211.359 205.44C211.359 205.707 211.472 205.907 211.699 206.04C211.939 206.173 212.252 206.28 212.639 206.36C213.025 206.44 213.445 206.513 213.899 206.58C214.365 206.633 214.832 206.72 215.299 206.84C215.765 206.96 216.185 207.133 216.559 207.36C216.945 207.573 217.259 207.873 217.499 208.26C217.739 208.633 217.859 209.127 217.859 209.74C217.859 210.407 217.659 211 217.259 211.52C216.859 212.027 216.279 212.427 215.519 212.72C214.772 213.013 213.859 213.16 212.779 213.16ZM226.384 213V210.9L226.184 210.44V206.68C226.184 206.013 225.977 205.493 225.564 205.12C225.164 204.747 224.544 204.56 223.704 204.56C223.13 204.56 222.564 204.653 222.004 204.84C221.457 205.013 220.99 205.253 220.604 205.56L219.484 203.38C220.07 202.967 220.777 202.647 221.604 202.42C222.43 202.193 223.27 202.08 224.124 202.08C225.764 202.08 227.037 202.467 227.944 203.24C228.85 204.013 229.304 205.22 229.304 206.86V213H226.384ZM223.104 213.16C222.264 213.16 221.544 213.02 220.944 212.74C220.344 212.447 219.884 212.053 219.564 211.56C219.244 211.067 219.084 210.513 219.084 209.9C219.084 209.26 219.237 208.7 219.544 208.22C219.864 207.74 220.364 207.367 221.044 207.1C221.724 206.82 222.61 206.68 223.704 206.68H226.564V208.5H224.044C223.31 208.5 222.804 208.62 222.524 208.86C222.257 209.1 222.124 209.4 222.124 209.76C222.124 210.16 222.277 210.48 222.584 210.72C222.904 210.947 223.337 211.06 223.884 211.06C224.404 211.06 224.87 210.94 225.284 210.7C225.697 210.447 225.997 210.08 226.184 209.6L226.664 211.04C226.437 211.733 226.024 212.26 225.424 212.62C224.824 212.98 224.05 213.16 223.104 213.16ZM237.012 213V210.9L242.412 205.8C242.838 205.413 243.152 205.067 243.352 204.76C243.552 204.453 243.685 204.173 243.752 203.92C243.832 203.667 243.872 203.433 243.872 203.22C243.872 202.66 243.678 202.233 243.292 201.94C242.918 201.633 242.365 201.48 241.632 201.48C241.045 201.48 240.498 201.593 239.992 201.82C239.498 202.047 239.078 202.4 238.732 202.88L236.372 201.36C236.905 200.56 237.652 199.927 238.612 199.46C239.572 198.993 240.678 198.76 241.932 198.76C242.972 198.76 243.878 198.933 244.652 199.28C245.438 199.613 246.045 200.087 246.472 200.7C246.912 201.313 247.132 202.047 247.132 202.9C247.132 203.353 247.072 203.807 246.952 204.26C246.845 204.7 246.618 205.167 246.272 205.66C245.938 206.153 245.445 206.707 244.792 207.32L240.312 211.54L239.692 210.36H247.592V213H237.012Z" fill="black"/>
<circle cx="543" cy="206" r="63.5" fill="white" stroke="black" stroke-width="3"/>
<path d="M509.66 213V199H512.34L518.3 208.88H516.88L522.74 199H525.4L525.44 213H522.4L522.38 203.66H522.94L518.26 211.52H516.8L512.02 203.66H512.7V213H509.66ZM533.882 213.16C532.655 213.16 531.575 212.92 530.642 212.44C529.722 211.96 529.008 211.307 528.502 210.48C527.995 209.64 527.742 208.687 527.742 207.62C527.742 206.54 527.988 205.587 528.482 204.76C528.988 203.92 529.675 203.267 530.542 202.8C531.408 202.32 532.388 202.08 533.482 202.08C534.535 202.08 535.482 202.307 536.322 202.76C537.175 203.2 537.848 203.84 538.342 204.68C538.835 205.507 539.082 206.5 539.082 207.66C539.082 207.78 539.075 207.92 539.062 208.08C539.048 208.227 539.035 208.367 539.022 208.5H530.282V206.68H537.382L536.182 207.22C536.182 206.66 536.068 206.173 535.842 205.76C535.615 205.347 535.302 205.027 534.902 204.8C534.502 204.56 534.035 204.44 533.502 204.44C532.968 204.44 532.495 204.56 532.082 204.8C531.682 205.027 531.368 205.353 531.142 205.78C530.915 206.193 530.802 206.687 530.802 207.26V207.74C530.802 208.327 530.928 208.847 531.182 209.3C531.448 209.74 531.815 210.08 532.282 210.32C532.762 210.547 533.322 210.66 533.962 210.66C534.535 210.66 535.035 210.573 535.462 210.4C535.902 210.227 536.302 209.967 536.662 209.62L538.322 211.42C537.828 211.98 537.208 212.413 536.462 212.72C535.715 213.013 534.855 213.16 533.882 213.16ZM544.779 213.16C543.859 213.16 542.972 213.053 542.119 212.84C541.279 212.613 540.612 212.333 540.119 212L541.159 209.76C541.652 210.067 542.232 210.32 542.899 210.52C543.579 210.707 544.245 210.8 544.899 210.8C545.619 210.8 546.125 210.713 546.419 210.54C546.725 210.367 546.879 210.127 546.879 209.82C546.879 209.567 546.759 209.38 546.519 209.26C546.292 209.127 545.985 209.027 545.599 208.96C545.212 208.893 544.785 208.827 544.319 208.76C543.865 208.693 543.405 208.607 542.939 208.5C542.472 208.38 542.045 208.207 541.659 207.98C541.272 207.753 540.959 207.447 540.719 207.06C540.492 206.673 540.379 206.173 540.379 205.56C540.379 204.88 540.572 204.28 540.959 203.76C541.359 203.24 541.932 202.833 542.679 202.54C543.425 202.233 544.319 202.08 545.359 202.08C546.092 202.08 546.839 202.16 547.599 202.32C548.359 202.48 548.992 202.713 549.499 203.02L548.459 205.24C547.939 204.933 547.412 204.727 546.879 204.62C546.359 204.5 545.852 204.44 545.359 204.44C544.665 204.44 544.159 204.533 543.839 204.72C543.519 204.907 543.359 205.147 543.359 205.44C543.359 205.707 543.472 205.907 543.699 206.04C543.939 206.173 544.252 206.28 544.639 206.36C545.025 206.44 545.445 206.513 545.899 206.58C546.365 206.633 546.832 206.72 547.299 206.84C547.765 206.96 548.185 207.133 548.559 207.36C548.945 207.573 549.259 207.873 549.499 208.26C549.739 208.633 549.859 209.127 549.859 209.74C549.859 210.407 549.659 211 549.259 211.52C548.859 212.027 548.279 212.427 547.519 212.72C546.772 213.013 545.859 213.16 544.779 213.16ZM558.384 213V210.9L558.184 210.44V206.68C558.184 206.013 557.977 205.493 557.564 205.12C557.164 204.747 556.544 204.56 555.704 204.56C555.13 204.56 554.564 204.653 554.004 204.84C553.457 205.013 552.99 205.253 552.604 205.56L551.484 203.38C552.07 202.967 552.777 202.647 553.604 202.42C554.43 202.193 555.27 202.08 556.124 202.08C557.764 202.08 559.037 202.467 559.944 203.24C560.85 204.013 561.304 205.22 561.304 206.86V213H558.384ZM555.104 213.16C554.264 213.16 553.544 213.02 552.944 212.74C552.344 212.447 551.884 212.053 551.564 211.56C551.244 211.067 551.084 210.513 551.084 209.9C551.084 209.26 551.237 208.7 551.544 208.22C551.864 207.74 552.364 207.367 553.044 207.1C553.724 206.82 554.61 206.68 555.704 206.68H558.564V208.5H556.044C555.31 208.5 554.804 208.62 554.524 208.86C554.257 209.1 554.124 209.4 554.124 209.76C554.124 210.16 554.277 210.48 554.584 210.72C554.904 210.947 555.337 211.06 555.884 211.06C556.404 211.06 556.87 210.94 557.284 210.7C557.697 210.447 557.997 210.08 558.184 209.6L558.664 211.04C558.437 211.733 558.024 212.26 557.424 212.62C556.824 212.98 556.05 213.16 555.104 213.16ZM571.292 213V200.2L572.692 201.6H568.492V199H574.532V213H571.292Z" fill="black"/>
<circle cx="378" cy="316" r="63.5" fill="white" stroke="black" stroke-width="3"/>
<path d="M344.66 323V309H347.34L353.3 318.88H351.88L357.74 309H360.4L360.44 323H357.4L357.38 313.66H357.94L353.26 321.52H351.8L347.02 313.66H347.7V323H344.66ZM368.882 323.16C367.655 323.16 366.575 322.92 365.642 322.44C364.722 321.96 364.008 321.307 363.502 320.48C362.995 319.64 362.742 318.687 362.742 317.62C362.742 316.54 362.988 315.587 363.482 314.76C363.988 313.92 364.675 313.267 365.542 312.8C366.408 312.32 367.388 312.08 368.482 312.08C369.535 312.08 370.482 312.307 371.322 312.76C372.175 313.2 372.848 313.84 373.342 314.68C373.835 315.507 374.082 316.5 374.082 317.66C374.082 317.78 374.075 317.92 374.062 318.08C374.048 318.227 374.035 318.367 374.022 318.5H365.282V316.68H372.382L371.182 317.22C371.182 316.66 371.068 316.173 370.842 315.76C370.615 315.347 370.302 315.027 369.902 314.8C369.502 314.56 369.035 314.44 368.502 314.44C367.968 314.44 367.495 314.56 367.082 314.8C366.682 315.027 366.368 315.353 366.142 315.78C365.915 316.193 365.802 316.687 365.802 317.26V317.74C365.802 318.327 365.928 318.847 366.182 319.3C366.448 319.74 366.815 320.08 367.282 320.32C367.762 320.547 368.322 320.66 368.962 320.66C369.535 320.66 370.035 320.573 370.462 320.4C370.902 320.227 371.302 319.967 371.662 319.62L373.322 321.42C372.828 321.98 372.208 322.413 371.462 322.72C370.715 323.013 369.855 323.16 368.882 323.16ZM379.779 323.16C378.859 323.16 377.972 323.053 377.119 322.84C376.279 322.613 375.612 322.333 375.119 322L376.159 319.76C376.652 320.067 377.232 320.32 377.899 320.52C378.579 320.707 379.245 320.8 379.899 320.8C380.619 320.8 381.125 320.713 381.419 320.54C381.725 320.367 381.879 320.127 381.879 319.82C381.879 319.567 381.759 319.38 381.519 319.26C381.292 319.127 380.985 319.027 380.599 318.96C380.212 318.893 379.785 318.827 379.319 318.76C378.865 318.693 378.405 318.607 377.939 318.5C377.472 318.38 377.045 318.207 376.659 317.98C376.272 317.753 375.959 317.447 375.719 317.06C375.492 316.673 375.379 316.173 375.379 315.56C375.379 314.88 375.572 314.28 375.959 313.76C376.359 313.24 376.932 312.833 377.679 312.54C378.425 312.233 379.319 312.08 380.359 312.08C381.092 312.08 381.839 312.16 382.599 312.32C383.359 312.48 383.992 312.713 384.499 313.02L383.459 315.24C382.939 314.933 382.412 314.727 381.879 314.62C381.359 314.5 380.852 314.44 380.359 314.44C379.665 314.44 379.159 314.533 378.839 314.72C378.519 314.907 378.359 315.147 378.359 315.44C378.359 315.707 378.472 315.907 378.699 316.04C378.939 316.173 379.252 316.28 379.639 316.36C380.025 316.44 380.445 316.513 380.899 316.58C381.365 316.633 381.832 316.72 382.299 316.84C382.765 316.96 383.185 317.133 383.559 317.36C383.945 317.573 384.259 317.873 384.499 318.26C384.739 318.633 384.859 319.127 384.859 319.74C384.859 320.407 384.659 321 384.259 321.52C383.859 322.027 383.279 322.427 382.519 322.72C381.772 323.013 380.859 323.16 379.779 323.16ZM393.384 323V320.9L393.184 320.44V316.68C393.184 316.013 392.977 315.493 392.564 315.12C392.164 314.747 391.544 314.56 390.704 314.56C390.13 314.56 389.564 314.653 389.004 314.84C388.457 315.013 387.99 315.253 387.604 315.56L386.484 313.38C387.07 312.967 387.777 312.647 388.604 312.42C389.43 312.193 390.27 312.08 391.124 312.08C392.764 312.08 394.037 312.467 394.944 313.24C395.85 314.013 396.304 315.22 396.304 316.86V323H393.384ZM390.104 323.16C389.264 323.16 388.544 323.02 387.944 322.74C387.344 322.447 386.884 322.053 386.564 321.56C386.244 321.067 386.084 320.513 386.084 319.9C386.084 319.26 386.237 318.7 386.544 318.22C386.864 317.74 387.364 317.367 388.044 317.1C388.724 316.82 389.61 316.68 390.704 316.68H393.564V318.5H391.044C390.31 318.5 389.804 318.62 389.524 318.86C389.257 319.1 389.124 319.4 389.124 319.76C389.124 320.16 389.277 320.48 389.584 320.72C389.904 320.947 390.337 321.06 390.884 321.06C391.404 321.06 391.87 320.94 392.284 320.7C392.697 320.447 392.997 320.08 393.184 319.6L393.664 321.04C393.437 321.733 393.024 322.26 392.424 322.62C391.824 322.98 391.05 323.16 390.104 323.16ZM408.672 323.24C407.698 323.24 406.732 323.113 405.772 322.86C404.812 322.593 403.998 322.22 403.332 321.74L404.592 319.26C405.125 319.647 405.745 319.953 406.452 320.18C407.158 320.407 407.872 320.52 408.592 320.52C409.405 320.52 410.045 320.36 410.512 320.04C410.978 319.72 411.212 319.28 411.212 318.72C411.212 318.187 411.005 317.767 410.592 317.46C410.178 317.153 409.512 317 408.592 317H407.112V314.86L411.012 310.44L411.372 311.6H404.032V309H413.832V311.1L409.952 315.52L408.312 314.58H409.252C410.972 314.58 412.272 314.967 413.152 315.74C414.032 316.513 414.472 317.507 414.472 318.72C414.472 319.507 414.265 320.247 413.852 320.94C413.438 321.62 412.805 322.173 411.952 322.6C411.098 323.027 410.005 323.24 408.672 323.24Z" fill="black"/>
<circle cx="378" cy="516" r="63.5" fill="white" stroke="black" stroke-width="3"/>
<path d="M342.66 523V509H345.34L351.3 518.88H349.88L355.74 509H358.4L358.44 523H355.4L355.38 513.66H355.94L351.26 521.52H349.8L345.02 513.66H345.7V523H342.66ZM366.882 523.16C365.655 523.16 364.575 522.92 363.642 522.44C362.722 521.96 362.008 521.307 361.502 520.48C360.995 519.64 360.742 518.687 360.742 517.62C360.742 516.54 360.988 515.587 361.482 514.76C361.988 513.92 362.675 513.267 363.542 512.8C364.408 512.32 365.388 512.08 366.482 512.08C367.535 512.08 368.482 512.307 369.322 512.76C370.175 513.2 370.848 513.84 371.342 514.68C371.835 515.507 372.082 516.5 372.082 517.66C372.082 517.78 372.075 517.92 372.062 518.08C372.048 518.227 372.035 518.367 372.022 518.5H363.282V516.68H370.382L369.182 517.22C369.182 516.66 369.068 516.173 368.842 515.76C368.615 515.347 368.302 515.027 367.902 514.8C367.502 514.56 367.035 514.44 366.502 514.44C365.968 514.44 365.495 514.56 365.082 514.8C364.682 515.027 364.368 515.353 364.142 515.78C363.915 516.193 363.802 516.687 363.802 517.26V517.74C363.802 518.327 363.928 518.847 364.182 519.3C364.448 519.74 364.815 520.08 365.282 520.32C365.762 520.547 366.322 520.66 366.962 520.66C367.535 520.66 368.035 520.573 368.462 520.4C368.902 520.227 369.302 519.967 369.662 519.62L371.322 521.42C370.828 521.98 370.208 522.413 369.462 522.72C368.715 523.013 367.855 523.16 366.882 523.16ZM377.779 523.16C376.859 523.16 375.972 523.053 375.119 522.84C374.279 522.613 373.612 522.333 373.119 522L374.159 519.76C374.652 520.067 375.232 520.32 375.899 520.52C376.579 520.707 377.245 520.8 377.899 520.8C378.619 520.8 379.125 520.713 379.419 520.54C379.725 520.367 379.879 520.127 379.879 519.82C379.879 519.567 379.759 519.38 379.519 519.26C379.292 519.127 378.985 519.027 378.599 518.96C378.212 518.893 377.785 518.827 377.319 518.76C376.865 518.693 376.405 518.607 375.939 518.5C375.472 518.38 375.045 518.207 374.659 517.98C374.272 517.753 373.959 517.447 373.719 517.06C373.492 516.673 373.379 516.173 373.379 515.56C373.379 514.88 373.572 514.28 373.959 513.76C374.359 513.24 374.932 512.833 375.679 512.54C376.425 512.233 377.319 512.08 378.359 512.08C379.092 512.08 379.839 512.16 380.599 512.32C381.359 512.48 381.992 512.713 382.499 513.02L381.459 515.24C380.939 514.933 380.412 514.727 379.879 514.62C379.359 514.5 378.852 514.44 378.359 514.44C377.665 514.44 377.159 514.533 376.839 514.72C376.519 514.907 376.359 515.147 376.359 515.44C376.359 515.707 376.472 515.907 376.699 516.04C376.939 516.173 377.252 516.28 377.639 516.36C378.025 516.44 378.445 516.513 378.899 516.58C379.365 516.633 379.832 516.72 380.299 516.84C380.765 516.96 381.185 517.133 381.559 517.36C381.945 517.573 382.259 517.873 382.499 518.26C382.739 518.633 382.859 519.127 382.859 519.74C382.859 520.407 382.659 521 382.259 521.52C381.859 522.027 381.279 522.427 380.519 522.72C379.772 523.013 378.859 523.16 377.779 523.16ZM391.384 523V520.9L391.184 520.44V516.68C391.184 516.013 390.977 515.493 390.564 515.12C390.164 514.747 389.544 514.56 388.704 514.56C388.13 514.56 387.564 514.653 387.004 514.84C386.457 515.013 385.99 515.253 385.604 515.56L384.484 513.38C385.07 512.967 385.777 512.647 386.604 512.42C387.43 512.193 388.27 512.08 389.124 512.08C390.764 512.08 392.037 512.467 392.944 513.24C393.85 514.013 394.304 515.22 394.304 516.86V523H391.384ZM388.104 523.16C387.264 523.16 386.544 523.02 385.944 522.74C385.344 522.447 384.884 522.053 384.564 521.56C384.244 521.067 384.084 520.513 384.084 519.9C384.084 519.26 384.237 518.7 384.544 518.22C384.864 517.74 385.364 517.367 386.044 517.1C386.724 516.82 387.61 516.68 388.704 516.68H391.564V518.5H389.044C388.31 518.5 387.804 518.62 387.524 518.86C387.257 519.1 387.124 519.4 387.124 519.76C387.124 520.16 387.277 520.48 387.584 520.72C387.904 520.947 388.337 521.06 388.884 521.06C389.404 521.06 389.87 520.94 390.284 520.7C390.697 520.447 390.997 520.08 391.184 519.6L391.664 521.04C391.437 521.733 391.024 522.26 390.424 522.62C389.824 522.98 389.05 523.16 388.104 523.16ZM408.392 523.24C407.112 523.24 405.998 522.973 405.052 522.44C404.118 521.907 403.398 521.127 402.892 520.1C402.385 519.073 402.132 517.807 402.132 516.3C402.132 514.687 402.432 513.32 403.032 512.2C403.645 511.08 404.485 510.227 405.552 509.64C406.632 509.053 407.872 508.76 409.272 508.76C410.018 508.76 410.732 508.84 411.412 509C412.092 509.16 412.678 509.4 413.172 509.72L411.972 512.1C411.585 511.833 411.172 511.653 410.732 511.56C410.292 511.453 409.832 511.4 409.352 511.4C408.138 511.4 407.178 511.767 406.472 512.5C405.765 513.233 405.412 514.32 405.412 515.76C405.412 516 405.412 516.267 405.412 516.56C405.425 516.853 405.465 517.147 405.532 517.44L404.632 516.6C404.885 516.08 405.212 515.647 405.612 515.3C406.012 514.94 406.485 514.673 407.032 514.5C407.592 514.313 408.205 514.22 408.872 514.22C409.778 514.22 410.592 514.4 411.312 514.76C412.032 515.12 412.605 515.627 413.032 516.28C413.472 516.933 413.692 517.7 413.692 518.58C413.692 519.527 413.452 520.353 412.972 521.06C412.505 521.753 411.872 522.293 411.072 522.68C410.285 523.053 409.392 523.24 408.392 523.24ZM408.212 520.82C408.665 520.82 409.065 520.74 409.412 520.58C409.772 520.407 410.052 520.16 410.252 519.84C410.452 519.52 410.552 519.153 410.552 518.74C410.552 518.1 410.332 517.593 409.892 517.22C409.465 516.833 408.892 516.64 408.172 516.64C407.692 516.64 407.272 516.733 406.912 516.92C406.552 517.093 406.265 517.34 406.052 517.66C405.852 517.967 405.752 518.327 405.752 518.74C405.752 519.14 405.852 519.5 406.052 519.82C406.252 520.127 406.532 520.373 406.892 520.56C407.252 520.733 407.692 520.82 408.212 520.82Z" fill="black"/>
<circle cx="543" cy="417" r="63.5" fill="white" stroke="black" stroke-width="3"/>
<path d="M509.66 424V410H512.34L518.3 419.88H516.88L522.74 410H525.4L525.44 424H522.4L522.38 414.66H522.94L518.26 422.52H516.8L512.02 414.66H512.7V424H509.66ZM533.882 424.16C532.655 424.16 531.575 423.92 530.642 423.44C529.722 422.96 529.008 422.307 528.502 421.48C527.995 420.64 527.742 419.687 527.742 418.62C527.742 417.54 527.988 416.587 528.482 415.76C528.988 414.92 529.675 414.267 530.542 413.8C531.408 413.32 532.388 413.08 533.482 413.08C534.535 413.08 535.482 413.307 536.322 413.76C537.175 414.2 537.848 414.84 538.342 415.68C538.835 416.507 539.082 417.5 539.082 418.66C539.082 418.78 539.075 418.92 539.062 419.08C539.048 419.227 539.035 419.367 539.022 419.5H530.282V417.68H537.382L536.182 418.22C536.182 417.66 536.068 417.173 535.842 416.76C535.615 416.347 535.302 416.027 534.902 415.8C534.502 415.56 534.035 415.44 533.502 415.44C532.968 415.44 532.495 415.56 532.082 415.8C531.682 416.027 531.368 416.353 531.142 416.78C530.915 417.193 530.802 417.687 530.802 418.26V418.74C530.802 419.327 530.928 419.847 531.182 420.3C531.448 420.74 531.815 421.08 532.282 421.32C532.762 421.547 533.322 421.66 533.962 421.66C534.535 421.66 535.035 421.573 535.462 421.4C535.902 421.227 536.302 420.967 536.662 420.62L538.322 422.42C537.828 422.98 537.208 423.413 536.462 423.72C535.715 424.013 534.855 424.16 533.882 424.16ZM544.779 424.16C543.859 424.16 542.972 424.053 542.119 423.84C541.279 423.613 540.612 423.333 540.119 423L541.159 420.76C541.652 421.067 542.232 421.32 542.899 421.52C543.579 421.707 544.245 421.8 544.899 421.8C545.619 421.8 546.125 421.713 546.419 421.54C546.725 421.367 546.879 421.127 546.879 420.82C546.879 420.567 546.759 420.38 546.519 420.26C546.292 420.127 545.985 420.027 545.599 419.96C545.212 419.893 544.785 419.827 544.319 419.76C543.865 419.693 543.405 419.607 542.939 419.5C542.472 419.38 542.045 419.207 541.659 418.98C541.272 418.753 540.959 418.447 540.719 418.06C540.492 417.673 540.379 417.173 540.379 416.56C540.379 415.88 540.572 415.28 540.959 414.76C541.359 414.24 541.932 413.833 542.679 413.54C543.425 413.233 544.319 413.08 545.359 413.08C546.092 413.08 546.839 413.16 547.599 413.32C548.359 413.48 548.992 413.713 549.499 414.02L548.459 416.24C547.939 415.933 547.412 415.727 546.879 415.62C546.359 415.5 545.852 415.44 545.359 415.44C544.665 415.44 544.159 415.533 543.839 415.72C543.519 415.907 543.359 416.147 543.359 416.44C543.359 416.707 543.472 416.907 543.699 417.04C543.939 417.173 544.252 417.28 544.639 417.36C545.025 417.44 545.445 417.513 545.899 417.58C546.365 417.633 546.832 417.72 547.299 417.84C547.765 417.96 548.185 418.133 548.559 418.36C548.945 418.573 549.259 418.873 549.499 419.26C549.739 419.633 549.859 420.127 549.859 420.74C549.859 421.407 549.659 422 549.259 422.52C548.859 423.027 548.279 423.427 547.519 423.72C546.772 424.013 545.859 424.16 544.779 424.16ZM558.384 424V421.9L558.184 421.44V417.68C558.184 417.013 557.977 416.493 557.564 416.12C557.164 415.747 556.544 415.56 555.704 415.56C555.13 415.56 554.564 415.653 554.004 415.84C553.457 416.013 552.99 416.253 552.604 416.56L551.484 414.38C552.07 413.967 552.777 413.647 553.604 413.42C554.43 413.193 555.27 413.08 556.124 413.08C557.764 413.08 559.037 413.467 559.944 414.24C560.85 415.013 561.304 416.22 561.304 417.86V424H558.384ZM555.104 424.16C554.264 424.16 553.544 424.02 552.944 423.74C552.344 423.447 551.884 423.053 551.564 422.56C551.244 422.067 551.084 421.513 551.084 420.9C551.084 420.26 551.237 419.7 551.544 419.22C551.864 418.74 552.364 418.367 553.044 418.1C553.724 417.82 554.61 417.68 555.704 417.68H558.564V419.5H556.044C555.31 419.5 554.804 419.62 554.524 419.86C554.257 420.1 554.124 420.4 554.124 420.76C554.124 421.16 554.277 421.48 554.584 421.72C554.904 421.947 555.337 422.06 555.884 422.06C556.404 422.06 556.87 421.94 557.284 421.7C557.697 421.447 557.997 421.08 558.184 420.6L558.664 422.04C558.437 422.733 558.024 423.26 557.424 423.62C556.824 423.98 556.05 424.16 555.104 424.16ZM568.972 421.06V418.88L575.572 410H578.972L572.512 418.88L570.932 418.42H581.952V421.06H568.972ZM576.512 424V421.06L576.612 418.42V415.8H579.672V424H576.512Z" fill="black"/>
<circle cx="213" cy="417" r="63.5" fill="white" stroke="black" stroke-width="3"/>
<path d="M177.66 424V410H180.34L186.3 419.88H184.88L190.74 410H193.4L193.44 424H190.4L190.38 414.66H190.94L186.26 422.52H184.8L180.02 414.66H180.7V424H177.66ZM201.882 424.16C200.655 424.16 199.575 423.92 198.642 423.44C197.722 422.96 197.008 422.307 196.502 421.48C195.995 420.64 195.742 419.687 195.742 418.62C195.742 417.54 195.988 416.587 196.482 415.76C196.988 414.92 197.675 414.267 198.542 413.8C199.408 413.32 200.388 413.08 201.482 413.08C202.535 413.08 203.482 413.307 204.322 413.76C205.175 414.2 205.848 414.84 206.342 415.68C206.835 416.507 207.082 417.5 207.082 418.66C207.082 418.78 207.075 418.92 207.062 419.08C207.048 419.227 207.035 419.367 207.022 419.5H198.282V417.68H205.382L204.182 418.22C204.182 417.66 204.068 417.173 203.842 416.76C203.615 416.347 203.302 416.027 202.902 415.8C202.502 415.56 202.035 415.44 201.502 415.44C200.968 415.44 200.495 415.56 200.082 415.8C199.682 416.027 199.368 416.353 199.142 416.78C198.915 417.193 198.802 417.687 198.802 418.26V418.74C198.802 419.327 198.928 419.847 199.182 420.3C199.448 420.74 199.815 421.08 200.282 421.32C200.762 421.547 201.322 421.66 201.962 421.66C202.535 421.66 203.035 421.573 203.462 421.4C203.902 421.227 204.302 420.967 204.662 420.62L206.322 422.42C205.828 422.98 205.208 423.413 204.462 423.72C203.715 424.013 202.855 424.16 201.882 424.16ZM212.779 424.16C211.859 424.16 210.972 424.053 210.119 423.84C209.279 423.613 208.612 423.333 208.119 423L209.159 420.76C209.652 421.067 210.232 421.32 210.899 421.52C211.579 421.707 212.245 421.8 212.899 421.8C213.619 421.8 214.125 421.713 214.419 421.54C214.725 421.367 214.879 421.127 214.879 420.82C214.879 420.567 214.759 420.38 214.519 420.26C214.292 420.127 213.985 420.027 213.599 419.96C213.212 419.893 212.785 419.827 212.319 419.76C211.865 419.693 211.405 419.607 210.939 419.5C210.472 419.38 210.045 419.207 209.659 418.98C209.272 418.753 208.959 418.447 208.719 418.06C208.492 417.673 208.379 417.173 208.379 416.56C208.379 415.88 208.572 415.28 208.959 414.76C209.359 414.24 209.932 413.833 210.679 413.54C211.425 413.233 212.319 413.08 213.359 413.08C214.092 413.08 214.839 413.16 215.599 413.32C216.359 413.48 216.992 413.713 217.499 414.02L216.459 416.24C215.939 415.933 215.412 415.727 214.879 415.62C214.359 415.5 213.852 415.44 213.359 415.44C212.665 415.44 212.159 415.533 211.839 415.72C211.519 415.907 211.359 416.147 211.359 416.44C211.359 416.707 211.472 416.907 211.699 417.04C211.939 417.173 212.252 417.28 212.639 417.36C213.025 417.44 213.445 417.513 213.899 417.58C214.365 417.633 214.832 417.72 215.299 417.84C215.765 417.96 216.185 418.133 216.559 418.36C216.945 418.573 217.259 418.873 217.499 419.26C217.739 419.633 217.859 420.127 217.859 420.74C217.859 421.407 217.659 422 217.259 422.52C216.859 423.027 216.279 423.427 215.519 423.72C214.772 424.013 213.859 424.16 212.779 424.16ZM226.384 424V421.9L226.184 421.44V417.68C226.184 417.013 225.977 416.493 225.564 416.12C225.164 415.747 224.544 415.56 223.704 415.56C223.13 415.56 222.564 415.653 222.004 415.84C221.457 416.013 220.99 416.253 220.604 416.56L219.484 414.38C220.07 413.967 220.777 413.647 221.604 413.42C222.43 413.193 223.27 413.08 224.124 413.08C225.764 413.08 227.037 413.467 227.944 414.24C228.85 415.013 229.304 416.22 229.304 417.86V424H226.384ZM223.104 424.16C222.264 424.16 221.544 424.02 220.944 423.74C220.344 423.447 219.884 423.053 219.564 422.56C219.244 422.067 219.084 421.513 219.084 420.9C219.084 420.26 219.237 419.7 219.544 419.22C219.864 418.74 220.364 418.367 221.044 418.1C221.724 417.82 222.61 417.68 223.704 417.68H226.564V419.5H224.044C223.31 419.5 222.804 419.62 222.524 419.86C222.257 420.1 222.124 420.4 222.124 420.76C222.124 421.16 222.277 421.48 222.584 421.72C222.904 421.947 223.337 422.06 223.884 422.06C224.404 422.06 224.87 421.94 225.284 421.7C225.697 421.447 225.997 421.08 226.184 420.6L226.664 422.04C226.437 422.733 226.024 423.26 225.424 423.62C224.824 423.98 224.05 424.16 223.104 424.16ZM241.892 424.24C240.918 424.24 239.952 424.113 238.992 423.86C238.045 423.593 237.232 423.22 236.552 422.74L237.832 420.26C238.365 420.647 238.978 420.953 239.672 421.18C240.378 421.407 241.092 421.52 241.812 421.52C242.625 421.52 243.265 421.36 243.732 421.04C244.198 420.72 244.432 420.273 244.432 419.7C244.432 419.34 244.338 419.02 244.152 418.74C243.965 418.46 243.632 418.247 243.152 418.1C242.685 417.953 242.025 417.88 241.172 417.88H237.592L238.312 410H246.852V412.6H239.472L241.152 411.12L240.652 416.74L238.972 415.26H241.932C243.318 415.26 244.432 415.453 245.272 415.84C246.125 416.213 246.745 416.727 247.132 417.38C247.518 418.033 247.712 418.773 247.712 419.6C247.712 420.427 247.505 421.193 247.092 421.9C246.678 422.593 246.038 423.16 245.172 423.6C244.318 424.027 243.225 424.24 241.892 424.24Z" fill="black"/>
</svg>
